<?xml version="1.0" encoding="UTF-8"?>
<svg version="1.2" baseProfile="tiny-ps" viewBox="0 0 400 400" width="400" height="400" xmlns="http://www.w3.org/2000/svg">
  <title>pinpox avatar</title>
  <rect x="0" y="0" width="20" height="20" fill="#622b1f"/>
  <rect x="20" y="0" width="20" height="20" fill="#713224"/>
  <rect x="40" y="0" width="20" height="20" fill="#7f382a"/>
  <rect x="60" y="0" width="20" height="20" fill="#8e3e2f"/>
  <rect x="80" y="0" width="20" height="20" fill="#9a4432"/>
  <rect x="100" y="0" width="20" height="20" fill="#a34933"/>
  <rect x="120" y="0" width="20" height="20" fill="#ad4c37"/>
  <rect x="140" y="0" width="20" height="20" fill="#b34e3a"/>
  <rect x="160" y="0" width="20" height="20" fill="#b6503a"/>
  <rect x="180" y="0" width="40" height="20" fill="#b7513b"/>
  <rect x="220" y="0" width="20" height="20" fill="#b6503a"/>
  <rect x="240" y="0" width="20" height="20" fill="#b34e3a"/>
  <rect x="260" y="0" width="20" height="20" fill="#ad4c37"/>
  <rect x="280" y="0" width="20" height="20" fill="#a34933"/>
  <rect x="300" y="0" width="20" height="20" fill="#9a4432"/>
  <rect x="320" y="0" width="20" height="20" fill="#8e3e2f"/>
  <rect x="340" y="0" width="20" height="20" fill="#7f382a"/>
  <rect x="360" y="0" width="20" height="20" fill="#713224"/>
  <rect x="380" y="0" width="20" height="20" fill="#622b1f"/>
  <rect x="0" y="20" width="20" height="20" fill="#743226"/>
  <rect x="20" y="20" width="20" height="20" fill="#853a2d"/>
  <rect x="40" y="20" width="20" height="20" fill="#954232"/>
  <rect x="60" y="20" width="20" height="20" fill="#a54936"/>
  <rect x="80" y="20" width="240" height="20" fill="#c45840"/>
  <rect x="320" y="20" width="20" height="20" fill="#a54936"/>
  <rect x="340" y="20" width="20" height="20" fill="#954232"/>
  <rect x="360" y="20" width="20" height="20" fill="#853a2d"/>
  <rect x="380" y="20" width="20" height="20" fill="#743226"/>
  <rect x="0" y="40" width="20" height="20" fill="#873a2d"/>
  <rect x="20" y="40" width="20" height="20" fill="#974232"/>
  <rect x="40" y="40" width="20" height="20" fill="#a94b38"/>
  <rect x="60" y="40" width="40" height="20" fill="#c45840"/>
  <rect x="100" y="40" width="200" height="20" fill="#000000"/>
  <rect x="300" y="40" width="40" height="20" fill="#c45840"/>
  <rect x="340" y="40" width="20" height="20" fill="#a94b38"/>
  <rect x="360" y="40" width="20" height="20" fill="#974232"/>
  <rect x="380" y="40" width="20" height="20" fill="#873a2d"/>
  <rect x="0" y="60" width="20" height="20" fill="#974131"/>
  <rect x="20" y="60" width="20" height="20" fill="#a94a37"/>
  <rect x="40" y="60" width="40" height="20" fill="#c45840"/>
  <rect x="80" y="60" width="180" height="20" fill="#000000"/>
  <rect x="260" y="60" width="20" height="20" fill="#e4d8a6"/>
  <rect x="280" y="60" width="40" height="20" fill="#000000"/>
  <rect x="320" y="60" width="40" height="20" fill="#c45840"/>
  <rect x="360" y="60" width="20" height="20" fill="#a94a37"/>
  <rect x="380" y="60" width="20" height="20" fill="#974131"/>
  <rect x="0" y="80" width="20" height="20" fill="#a54836"/>
  <rect x="20" y="80" width="20" height="20" fill="#b8513c"/>
  <rect x="40" y="80" width="20" height="20" fill="#c45840"/>
  <rect x="60" y="80" width="160" height="20" fill="#000000"/>
  <rect x="220" y="80" width="80" height="20" fill="#e4d8a6"/>
  <rect x="300" y="80" width="40" height="20" fill="#000000"/>
  <rect x="340" y="80" width="20" height="20" fill="#c45840"/>
  <rect x="360" y="80" width="20" height="20" fill="#b8513c"/>
  <rect x="380" y="80" width="20" height="20" fill="#a54836"/>
  <rect x="0" y="100" width="20" height="20" fill="#b24d38"/>
  <rect x="20" y="100" width="20" height="20" fill="#c65740"/>
  <rect x="40" y="100" width="20" height="20" fill="#c45840"/>
  <rect x="60" y="100" width="120" height="20" fill="#000000"/>
  <rect x="180" y="100" width="140" height="20" fill="#e4d8a6"/>
  <rect x="320" y="100" width="20" height="20" fill="#000000"/>
  <rect x="340" y="100" width="20" height="20" fill="#c45840"/>
  <rect x="360" y="100" width="20" height="20" fill="#c65740"/>
  <rect x="380" y="100" width="20" height="20" fill="#b24d38"/>
  <rect x="0" y="120" width="20" height="20" fill="#bf533d"/>
  <rect x="20" y="120" width="40" height="20" fill="#c45840"/>
  <rect x="60" y="120" width="120" height="20" fill="#282212"/>
  <rect x="180" y="120" width="40" height="20" fill="#e4d8a6"/>
  <rect x="220" y="120" width="120" height="20" fill="#282212"/>
  <rect x="340" y="120" width="40" height="20" fill="#c45840"/>
  <rect x="380" y="120" width="20" height="20" fill="#bf533d"/>
  <rect x="0" y="140" width="20" height="20" fill="#c75840"/>
  <rect x="20" y="140" width="20" height="20" fill="#c45840"/>
  <rect x="40" y="140" width="40" height="20" fill="#282212"/>
  <rect x="80" y="140" width="40" height="20" fill="#ffffff"/>
  <rect x="120" y="140" width="40" height="20" fill="#000000"/>
  <rect x="160" y="140" width="80" height="20" fill="#282212"/>
  <rect x="240" y="140" width="40" height="20" fill="#ffffff"/>
  <rect x="280" y="140" width="40" height="20" fill="#000000"/>
  <rect x="320" y="140" width="40" height="20" fill="#282212"/>
  <rect x="360" y="140" width="20" height="20" fill="#c45840"/>
  <rect x="380" y="140" width="20" height="20" fill="#c75840"/>
  <rect x="0" y="160" width="20" height="20" fill="#cc5a42"/>
  <rect x="20" y="160" width="20" height="20" fill="#c45840"/>
  <rect x="40" y="160" width="20" height="20" fill="#cdc392"/>
  <rect x="60" y="160" width="20" height="20" fill="#282212"/>
  <rect x="80" y="160" width="40" height="20" fill="#ffffff"/>
  <rect x="120" y="160" width="40" height="20" fill="#000000"/>
  <rect x="160" y="160" width="20" height="20" fill="#282212"/>
  <rect x="180" y="160" width="40" height="20" fill="#e4d8a6"/>
  <rect x="220" y="160" width="20" height="20" fill="#282212"/>
  <rect x="240" y="160" width="40" height="20" fill="#ffffff"/>
  <rect x="280" y="160" width="40" height="20" fill="#000000"/>
  <rect x="320" y="160" width="20" height="20" fill="#282212"/>
  <rect x="340" y="160" width="20" height="20" fill="#cdc392"/>
  <rect x="360" y="160" width="20" height="20" fill="#c45840"/>
  <rect x="380" y="160" width="20" height="20" fill="#cc5a42"/>
  <rect x="0" y="180" width="20" height="20" fill="#d15c43"/>
  <rect x="20" y="180" width="20" height="20" fill="#c45840"/>
  <rect x="40" y="180" width="20" height="20" fill="#cdc392"/>
  <rect x="60" y="180" width="20" height="20" fill="#282212"/>
  <rect x="80" y="180" width="80" height="20" fill="#ffffff"/>
  <rect x="160" y="180" width="20" height="20" fill="#282212"/>
  <rect x="180" y="180" width="40" height="20" fill="#e4d8a6"/>
  <rect x="220" y="180" width="20" height="20" fill="#282212"/>
  <rect x="240" y="180" width="80" height="20" fill="#ffffff"/>
  <rect x="320" y="180" width="20" height="20" fill="#282212"/>
  <rect x="340" y="180" width="20" height="20" fill="#cdc392"/>
  <rect x="360" y="180" width="20" height="20" fill="#c45840"/>
  <rect x="380" y="180" width="20" height="20" fill="#d15c43"/>
  <rect x="0" y="200" width="20" height="20" fill="#d25c45"/>
  <rect x="20" y="200" width="40" height="20" fill="#c45840"/>
  <rect x="60" y="200" width="120" height="20" fill="#282212"/>
  <rect x="180" y="200" width="40" height="20" fill="#e4d8a6"/>
  <rect x="220" y="200" width="120" height="20" fill="#282212"/>
  <rect x="340" y="200" width="40" height="20" fill="#c45840"/>
  <rect x="380" y="200" width="20" height="20" fill="#d25c45"/>
  <rect x="0" y="220" width="20" height="20" fill="#d25c45"/>
  <rect x="20" y="220" width="20" height="20" fill="#e16349"/>
  <rect x="40" y="220" width="20" height="20" fill="#c45840"/>
  <rect x="60" y="220" width="20" height="20" fill="#322012"/>
  <rect x="80" y="220" width="80" height="20" fill="#e2d29f"/>
  <rect x="160" y="220" width="80" height="20" fill="#322012"/>
  <rect x="240" y="220" width="80" height="20" fill="#e2d29f"/>
  <rect x="320" y="220" width="20" height="20" fill="#322012"/>
  <rect x="340" y="220" width="20" height="20" fill="#c45840"/>
  <rect x="360" y="220" width="20" height="20" fill="#e16349"/>
  <rect x="380" y="220" width="20" height="20" fill="#d25c45"/>
  <rect x="0" y="240" width="20" height="20" fill="#d05b43"/>
  <rect x="20" y="240" width="20" height="20" fill="#de6248"/>
  <rect x="40" y="240" width="20" height="20" fill="#c45840"/>
  <rect x="60" y="240" width="20" height="20" fill="#322012"/>
  <rect x="80" y="240" width="20" height="20" fill="#4e412e"/>
  <rect x="100" y="240" width="40" height="20" fill="#e2d29f"/>
  <rect x="140" y="240" width="20" height="20" fill="#322012"/>
  <rect x="160" y="240" width="80" height="20" fill="#ffffff"/>
  <rect x="240" y="240" width="20" height="20" fill="#322012"/>
  <rect x="260" y="240" width="40" height="20" fill="#e2d29f"/>
  <rect x="300" y="240" width="20" height="20" fill="#4e412e"/>
  <rect x="320" y="240" width="20" height="20" fill="#322012"/>
  <rect x="340" y="240" width="20" height="20" fill="#c45840"/>
  <rect x="360" y="240" width="20" height="20" fill="#de6248"/>
  <rect x="380" y="240" width="20" height="20" fill="#d05b43"/>
  <rect x="0" y="260" width="20" height="20" fill="#b8513c"/>
  <rect x="20" y="260" width="20" height="20" fill="#da6047"/>
  <rect x="40" y="260" width="40" height="20" fill="#c45840"/>
  <rect x="80" y="260" width="80" height="20" fill="#322012"/>
  <rect x="160" y="260" width="20" height="20" fill="#4e412e"/>
  <rect x="180" y="260" width="40" height="20" fill="#322012"/>
  <rect x="220" y="260" width="20" height="20" fill="#4e412e"/>
  <rect x="240" y="260" width="80" height="20" fill="#322012"/>
  <rect x="320" y="260" width="40" height="20" fill="#c45840"/>
  <rect x="360" y="260" width="20" height="20" fill="#da6047"/>
  <rect x="380" y="260" width="20" height="20" fill="#b8513c"/>
  <rect x="0" y="280" width="20" height="20" fill="#af4f38"/>
  <rect x="20" y="280" width="20" height="20" fill="#d55e45"/>
  <rect x="40" y="280" width="20" height="20" fill="#e16349"/>
  <rect x="60" y="280" width="20" height="20" fill="#d65e45"/>
  <rect x="80" y="280" width="40" height="20" fill="#c45840"/>
  <rect x="120" y="280" width="40" height="20" fill="#322012"/>
  <rect x="160" y="280" width="20" height="20" fill="#4e412e"/>
  <rect x="180" y="280" width="40" height="20" fill="#322012"/>
  <rect x="220" y="280" width="20" height="20" fill="#4e412e"/>
  <rect x="240" y="280" width="40" height="20" fill="#322012"/>
  <rect x="280" y="280" width="40" height="20" fill="#c45840"/>
  <rect x="320" y="280" width="20" height="20" fill="#d65e45"/>
  <rect x="340" y="280" width="20" height="20" fill="#e16349"/>
  <rect x="360" y="280" width="20" height="20" fill="#d55e45"/>
  <rect x="380" y="280" width="20" height="20" fill="#af4f38"/>
  <rect x="0" y="300" width="20" height="20" fill="#a64a35"/>
  <rect x="20" y="300" width="20" height="20" fill="#bc523c"/>
  <rect x="40" y="300" width="20" height="20" fill="#db6147"/>
  <rect x="60" y="300" width="20" height="20" fill="#e5644a"/>
  <rect x="80" y="300" width="20" height="20" fill="#eb684c"/>
  <rect x="100" y="300" width="20" height="20" fill="#e5654a"/>
  <rect x="120" y="300" width="20" height="20" fill="#c45840"/>
  <rect x="140" y="300" width="40" height="20" fill="#322012"/>
  <rect x="180" y="300" width="40" height="20" fill="#d9c89a"/>
  <rect x="220" y="300" width="40" height="20" fill="#322012"/>
  <rect x="260" y="300" width="20" height="20" fill="#c45840"/>
  <rect x="280" y="300" width="20" height="20" fill="#e5654a"/>
  <rect x="300" y="300" width="20" height="20" fill="#eb684c"/>
  <rect x="320" y="300" width="20" height="20" fill="#e5644a"/>
  <rect x="340" y="300" width="20" height="20" fill="#db6147"/>
  <rect x="360" y="300" width="20" height="20" fill="#bc523c"/>
  <rect x="380" y="300" width="20" height="20" fill="#a64a35"/>
  <rect x="0" y="320" width="20" height="20" fill="#9e4633"/>
  <rect x="20" y="320" width="20" height="20" fill="#c3563f"/>
  <rect x="40" y="320" width="20" height="20" fill="#d35e44"/>
  <rect x="60" y="320" width="20" height="20" fill="#cf5c43"/>
  <rect x="80" y="320" width="60" height="20" fill="#282214"/>
  <rect x="140" y="320" width="120" height="20" fill="#d9c89a"/>
  <rect x="260" y="320" width="60" height="20" fill="#282214"/>
  <rect x="320" y="320" width="20" height="20" fill="#cf5c43"/>
  <rect x="340" y="320" width="20" height="20" fill="#d35e44"/>
  <rect x="360" y="320" width="20" height="20" fill="#c3563f"/>
  <rect x="380" y="320" width="20" height="20" fill="#9e4633"/>
  <rect x="0" y="340" width="20" height="20" fill="#9e4633"/>
  <rect x="20" y="340" width="20" height="20" fill="#a24835"/>
  <rect x="40" y="340" width="20" height="20" fill="#b8523c"/>
  <rect x="60" y="340" width="100" height="20" fill="#282214"/>
  <rect x="160" y="340" width="80" height="20" fill="#d9c89a"/>
  <rect x="240" y="340" width="100" height="20" fill="#282214"/>
  <rect x="340" y="340" width="20" height="20" fill="#b8523c"/>
  <rect x="360" y="340" width="20" height="20" fill="#a24835"/>
  <rect x="380" y="340" width="20" height="20" fill="#9e4633"/>
  <rect x="0" y="360" width="20" height="20" fill="#833a2b"/>
  <rect x="20" y="360" width="20" height="20" fill="#8e3f2f"/>
  <rect x="40" y="360" width="20" height="20" fill="#9c4634"/>
  <rect x="60" y="360" width="280" height="20" fill="#282214"/>
  <rect x="340" y="360" width="20" height="20" fill="#9c4634"/>
  <rect x="360" y="360" width="20" height="20" fill="#8e3f2f"/>
  <rect x="380" y="360" width="20" height="20" fill="#833a2b"/>
  <rect x="0" y="380" width="20" height="20" fill="#743326"/>
  <rect x="20" y="380" width="20" height="20" fill="#80372a"/>
  <rect x="40" y="380" width="20" height="20" fill="#743527"/>
  <rect x="60" y="380" width="280" height="20" fill="#282214"/>
  <rect x="340" y="380" width="20" height="20" fill="#743527"/>
  <rect x="360" y="380" width="20" height="20" fill="#80372a"/>
  <rect x="380" y="380" width="20" height="20" fill="#743326"/>
</svg>
